<?xml version="1.0" encoding="utf-8"?>
<!-- Generator: Adobe Illustrator 15.0.0, SVG Export Plug-In  -->
<!DOCTYPE svg PUBLIC "-//W3C//DTD SVG 1.1//EN" "http://www.w3.org/Graphics/SVG/1.1/DTD/svg11.dtd" [
	<!ENTITY ns_flows "http://ns.adobe.com/Flows/1.0/">
]>
<svg version="1.1"
	 xmlns="http://www.w3.org/2000/svg" xmlns:xlink="http://www.w3.org/1999/xlink" xmlns:a="http://ns.adobe.com/AdobeSVGViewerExtensions/3.0/"
	 x="0px" y="0px" width="1000px" height="1000px" viewBox="-100.6 -90.9 1000 1000" enable-background="new -100.6 -90.9 1000 1000"
	 xml:space="preserve">
<defs>
</defs>
<path fill="#F4F7FA" d="M338.2,0.1c-98.5,1.7-251,37.7-294.8,130.2C28,162.6,29,210.1,31.1,305.1c0.6,27.9,1.6,68.6,8.7,119.2
	c14.8,104.9,24.8,176.4,62.8,217.9c95.2,104.2,439.3,101.2,586.2-86.4c80.1-102.4,92.5-248,19.2-368.3
	C627.3,55.1,470.1-2.2,338.2,0.1z"/>
<linearGradient id="SVGID_3_" gradientUnits="userSpaceOnUse" x1="94.3408" y1="228.2788" x2="427.9058" y2="228.2788">
	<stop  offset="0" style="stop-color:#FFC444"/>
	<stop  offset="0.9964" style="stop-color:#F36F56"/>
</linearGradient>
<path fill="url(#SVGID_3_)" d="M299.1,394.2c1.9,11.2,2.3,20.5,3.6,31.5c40.4-25.3,84.1-42.2,125.1-67.8
	c-53-32.8-90.1-39.7-107-109.9c-7.9-33-13.9-100.3-40.7-122c-30.6-24.8-49-4.2-58.5-36.1C206.8,40,159.5,4.5,108.8,56.2
	c-50,51.1,41,212.9,99.4,238.7C253.5,326.9,289.1,336,299.1,394.2z"/>
<g>
	<defs>
		<path id="SVGID_2_" d="M319.4,242.6c-2.9-12.4-13.9-101.5-39.5-117.9c-29.3-18.6-49-4.5-58.3-35.4C207,41.1,159.5,4.1,108.8,56.1
			c-50,51.4,41.2,213.2,99.2,238.5c47.7,36.2,77.7,35,92.6,102.8C311,444.9,330.5,289.2,319.4,242.6z"/>
	</defs>
	<clipPath id="SVGID_4_">
		<use xlink:href="#SVGID_2_"  overflow="visible"/>
	</clipPath>
	<g clip-path="url(#SVGID_4_)">
		<path fill="#FCFDFE" d="M364.9,385.7c-11.4-13.4-23.9-26.1-36.1-38.4l-4.6-4.7c-9.8-9.9-18.3-18.9-25.8-26.9
			c-4.2-4.5-8.2-8.7-12.2-12.8c-12-12.5-20.4-21.1-24.6-25.4c-1.4-1.4-2.3-2.4-2.7-2.8c-32.8-34.1-64.9-92.5-82.1-123.9
			c-1.9-3.4-3.5-6.4-5-9c-24.9-44.7-56.1-88.2-92.8-129.4l0.6-0.6c36.8,41.2,68,84.8,92.9,129.5c1.4,2.6,3.1,5.6,5,9
			c17.2,31.3,49.2,89.7,82,123.7c0.4,0.4,1.3,1.4,2.7,2.8c4.2,4.3,12.6,13,24.6,25.4c3.9,4.1,7.9,8.3,12.2,12.8
			c7.5,8,16.1,17,25.8,26.8l4.6,4.7c12.2,12.3,24.7,25,36.1,38.5L364.9,385.7z"/>
		<path fill="#FCFDFE" d="M303.7,323.2c-20.6-23.6-35.3-59.5-42.6-104c-6-37.1-6.5-78.9-1.3-114.7l0.8,0.1
			c-5.2,35.8-4.7,77.5,1.3,114.5c7.2,44.4,21.9,80.2,42.4,103.6L303.7,323.2z"/>
		<path fill="#FCFDFE" d="M179.5,155.9c-6.7-26.2-10.1-53.5-13.4-79.8c-2.3-18-4.6-36.7-8-54.8l0.8-0.2c3.4,18.2,5.7,36.8,8,54.9
			c3.3,26.3,6.7,53.5,13.4,79.7L179.5,155.9z"/>
		<path fill="#FCFDFE" d="M224.6,231.2c-29.4-23.6-79.4-41.8-107-39l-0.1-0.8c27.8-2.8,78.1,15.5,107.7,39.2L224.6,231.2z"/>
	</g>
</g>
<linearGradient id="SVGID_5_" gradientUnits="userSpaceOnUse" x1="476.3911" y1="476.3564" x2="4.5723" y2="197.4091">
	<stop  offset="3.597120e-003" style="stop-color:#E38DDD"/>
	<stop  offset="1" style="stop-color:#9571F6"/>
</linearGradient>
<path fill="url(#SVGID_5_)" d="M158.3,235.9c33.1,47.7,58.4,23.5,92.1-6.1c14.5,52.1,30.5,102.3,46.9,153.3
	c-22.8,19.4-39.6,32.9-67.3,9.3c-31.3-26.7-48.5-43.2-92.9-34c-44.4,9.2-88.3-7.4-91.6-52.7c-3.5-47.6-62.5-86.1-40.8-131.2
	C42.6,96,123.8,186.2,158.3,235.9z"/>
<g>
	<defs>
		<path id="SVGID_1_" d="M312.7,365.3c-22.2,26.6-47.1,56.8-83,26.6c-29.9-25.1-48.6-43.4-92.7-33.7s-88.3-7.7-91.5-52.6
			C42.2,258.5-17,219.1,4.8,174.6c38-77.5,118.6,9.6,153.7,62.1c35.2,52.5,60.4,11.6,96-6.2C303.3,206.3,330.7,343.8,312.7,365.3z"
			/>
	</defs>
	<clipPath id="SVGID_6_">
		<use xlink:href="#SVGID_1_"  overflow="visible"/>
	</clipPath>
	<g clip-path="url(#SVGID_6_)">
		<path fill="#FCFDFE" d="M266.8,321.8c-48.9-2.2-89.6-5.5-130.9-24.5c-39.5-18.2-66.3-44.6-89.7-88.2
			c-12.1-22.6-23.4-37.4-39.1-57.5l0.7-0.5c15.8,20.1,27.1,34.9,39.2,57.6c23.3,43.4,50,69.7,89.3,87.8
			c41.1,19,81.7,22.2,130.6,24.4L266.8,321.8z"/>
		<path fill="#FCFDFE" d="M243.5,408.8l-0.8-0.2c4.4-15.5,10.5-29.1,18.6-41.8c4.1-6.4,8.9-11.7,14.9-17.6l0.6,0.6
			c-5.9,5.8-10.7,11-14.8,17.4C253.9,379.8,247.9,393.4,243.5,408.8z"/>
		<path fill="#FCFDFE" d="M50.5,343.3l-0.5-0.7c34.9-25,74.6-37.7,111.8-36l0,0.9C124.8,305.7,85.3,318.4,50.5,343.3z"/>
		<path fill="#FCFDFE" d="M76.2,253.5c-2.2-3.8-11.2-39.3-18.9-71.3c-7.8-32.1-15.7-66.8-15.5-69.2l0.9,0.1
			c-0.1,2.1,6.8,33,15.5,68.9c7.7,31.9,16.7,67.3,18.8,71L76.2,253.5z"/>
	</g>
</g>
<linearGradient id="SVGID_7_" gradientUnits="userSpaceOnUse" x1="-85.229" y1="555.9316" x2="26.8764" y2="498.5753">
	<stop  offset="0" style="stop-color:#FF9085"/>
	<stop  offset="1" style="stop-color:#FB6FBB"/>
</linearGradient>
<path fill="url(#SVGID_7_)" d="M67.7,219.5L7.3,606.9c-1.1,7.5,4.2,14.2,11,13.9l302.3-14.3L67.7,219.5z"/>
<linearGradient id="SVGID_8_" gradientUnits="userSpaceOnUse" x1="67.4585" y1="444.5371" x2="711.3101" y2="444.5371">
	<stop  offset="0" style="stop-color:#FF9085"/>
	<stop  offset="1" style="stop-color:#FB6FBB"/>
</linearGradient>
<path fill="url(#SVGID_8_)" d="M620.5,227.6L79.3,210.8c-7.9-0.2-13.1,5.8-11.5,13.5l87.8,441c1.5,7.7,9.1,13.5,16.8,12.9
	l530.3-38.3c6-0.4,9.8-6.3,8.4-13l-77-386.7C632.7,233.4,626.6,227.8,620.5,227.6z"/>
<linearGradient id="SVGID_9_" gradientUnits="userSpaceOnUse" x1="1002.3433" y1="273.5396" x2="1373.9263" y2="958.1694" gradientTransform="matrix(1 0 0.2218 1 -802.274 0)">
	<stop  offset="0" style="stop-color:#FF9085"/>
	<stop  offset="1" style="stop-color:#FB6FBB"/>
</linearGradient>
<path fill="url(#SVGID_9_)" d="M623.4,227.6L82.2,210.8c-7.9-0.2-13.1,5.8-11.5,13.5l87.8,441c1.5,7.7,9.1,13.5,16.8,12.9
	l530.3-38.3c6-0.4,9.8-6.3,8.4-13l-77-386.7C635.6,233.4,629.6,227.8,623.4,227.6z"/>
<linearGradient id="SVGID_10_" gradientUnits="userSpaceOnUse" x1="889.2183" y1="337.2837" x2="1266.4496" y2="1032.3204" gradientTransform="matrix(1 0 0.2218 1 -802.274 0)">
	<stop  offset="0" style="stop-color:#FF9085"/>
	<stop  offset="1" style="stop-color:#FB6FBB"/>
</linearGradient>
<path fill="url(#SVGID_10_)" d="M482.2,461.2c-106.5-57.9-207.5-12.9-280.2-87.1c-44.8-45.7-53-110.5-51.6-161.1l-68.2-2.1
	c-7.9-0.2-13.1,5.8-11.5,13.5l87.8,441c1.5,7.7,9.1,13.5,16.8,12.9L635.4,645C585.1,535.8,528.4,486.3,482.2,461.2z"/>
<path fill="#D8DEE8" d="M687.4,625.2l-502.3,34.3c-8.3,0.6-16.5-5.7-18.1-14L88.7,252.6c-1.7-8.3,3.9-14.9,12.4-14.7l511.7,12.9
	c6.7,0.2,13.3,6.3,14.7,13.6l69,346.7C698.1,618.4,694,624.8,687.4,625.2z"/>
<linearGradient id="SVGID_11_" gradientUnits="userSpaceOnUse" x1="1064.4233" y1="700.7334" x2="1139.6865" y2="158.841" gradientTransform="matrix(1 0 0.2218 1 -802.274 0)">
	<stop  offset="3.597120e-003" style="stop-color:#EBEFF2"/>
	<stop  offset="1" style="stop-color:#FFFFFF"/>
</linearGradient>
<path fill="url(#SVGID_11_)" d="M689.7,625.1l-501.7,34.2c-8.3,0.6-16.5-5.7-18.1-14L91.7,252.7c-1.7-8.3,3.9-14.9,12.4-14.7
	l511.1,12.8c6.7,0.2,13.3,6.3,14.7,13.6l69,346.5C700.3,618.3,696.2,624.6,689.7,625.1z"/>
<path fill="#D8DEE8" d="M358.7,379.7l-54.8,0.3c-1.6,0-3.2-1.3-3.6-3l-9.1-45.5c-0.3-1.7,0.7-3,2.4-3l54.9,0.3c1.6,0,3.2,1.4,3.5,3
	l8.9,44.9C361.3,378.3,360.3,379.6,358.7,379.7z M305.7,373.9l48.9-0.2l-7.7-38.9l-49-0.2L305.7,373.9z"/>
<path fill="#D8DEE8" d="M427.9,379.2l-53,0.3c-1.6,0-3.1-1.3-3.5-3l-8.9-44.8c-0.3-1.7,0.7-3,2.3-3l53.1,0.3c1.6,0,3.1,1.3,3.4,3
	l8.8,44.2C430.4,377.9,429.4,379.2,427.9,379.2z M376.6,373.6l47.3-0.2l-7.6-38.3l-47.4-0.2L376.6,373.6z"/>
<path fill="#D8DEE8" d="M494.9,378.8l-51.3,0.3c-1.5,0-3.1-1.3-3.4-2.9l-8.8-44c-0.3-1.6,0.7-2.9,2.2-2.9l51.5,0.3
	c1.5,0,3,1.3,3.3,2.9l8.7,43.5C497.4,377.5,496.4,378.8,494.9,378.8z M445.2,373.2L491,373l-7.5-37.7l-45.9-0.2L445.2,373.2z"/>
<path fill="#D8DEE8" d="M559.9,378.4l-49.8,0.3c-1.5,0-3-1.3-3.3-2.9l-8.6-43.4c-0.3-1.6,0.6-2.9,2.1-2.9l49.9,0.3
	c1.5,0,2.9,1.3,3.2,2.9l8.5,42.8C562.2,377.1,561.3,378.4,559.9,378.4z M511.7,372.9l44.4-0.2l-7.4-37.1l-44.5-0.2L511.7,372.9z"/>
<path fill="#D8DEE8" d="M622.8,378l-48.2,0.3c-1.4,0-2.9-1.3-3.2-2.8l-8.5-42.7c-0.3-1.6,0.6-2.9,2.1-2.8l48.3,0.3
	c1.4,0,2.8,1.3,3.1,2.8l8.4,42.1C625.1,376.7,624.2,378,622.8,378z M576.1,372.6l43.1-0.2l-7.3-36.5l-43.2-0.2L576.1,372.6z"/>
<path fill="#D8DEE8" d="M225.6,442.6l-58.4,1.2c-1.8,0-3.5-1.3-3.8-3.1l-9.4-47.1c-0.3-1.7,0.8-3.2,2.6-3.2l58.5-0.5
	c1.7,0,3.4,1.4,3.7,3.1l9.2,46.4C228.4,441.1,227.3,442.5,225.6,442.6z M169.1,437.4l52.1-1l-8-40.2l-52.2,0.5L169.1,437.4z"/>
<path fill="#D8DEE8" d="M299.3,441.1l-56.5,1.1c-1.7,0-3.3-1.3-3.7-3l-9.2-46.3c-0.3-1.7,0.8-3.1,2.5-3.1l56.6-0.5
	c1.7,0,3.3,1.3,3.6,3l9.1,45.6C302,439.7,301,441.1,299.3,441.1z M244.7,436l50.4-0.9l-7.9-39.6l-50.5,0.5L244.7,436z"/>
<path fill="#D8DEE8" d="M370.6,439.7l-54.6,1.1c-1.6,0-3.2-1.3-3.6-3l-9.1-45.5c-0.3-1.7,0.7-3.1,2.4-3.1l54.7-0.5
	c1.6,0,3.2,1.3,3.5,3l8.9,44.9C373.2,438.2,372.2,439.6,370.6,439.7z M317.8,434.6l48.8-0.9l-7.7-38.9l-48.9,0.5L317.8,434.6z"/>
<linearGradient id="SVGID_12_" gradientUnits="userSpaceOnUse" x1="1088.7886" y1="413.7461" x2="1148.5913" y2="413.7461" gradientTransform="matrix(1 0 0.2218 1 -802.274 0)">
	<stop  offset="0" style="stop-color:#FF9085"/>
	<stop  offset="1" style="stop-color:#FB6FBB"/>
</linearGradient>
<path fill="url(#SVGID_12_)" d="M439.6,438.3l-52.9,1.1c-1.6,0-3.1-1.3-3.5-2.9l-8.9-44.8c-0.3-1.7,0.7-3,2.3-3l53-0.4
	c1.5,0,3.1,1.3,3.4,2.9l8.8,44.2C442.2,436.9,441.2,438.2,439.6,438.3z M388.5,433.3l47.2-0.9l-7.6-38.3l-47.3,0.5L388.5,433.3z"/>
<path fill="#D8DEE8" d="M506.5,436.9l-51.2,1c-1.5,0-3-1.3-3.4-2.9l-8.8-44c-0.3-1.6,0.7-3,2.2-3l51.3-0.4c1.5,0,3,1.3,3.3,2.9
	l8.7,43.5C508.9,435.6,508,436.9,506.5,436.9z M456.9,432l45.7-0.9l-7.5-37.7l-45.8,0.4L456.9,432z"/>
<path fill="#D8DEE8" d="M571.3,435.6l-49.6,1c-1.5,0-3-1.2-3.3-2.8l-8.6-43.4c-0.3-1.6,0.6-2.9,2.1-2.9l49.7-0.4
	c1.5,0,2.9,1.3,3.2,2.8l8.5,42.8C573.6,434.3,572.7,435.6,571.3,435.6z M523.2,430.8l44.3-0.8l-7.4-37.1l-44.4,0.4L523.2,430.8z"/>
<path fill="#D8DEE8" d="M634,434.3l-48.1,1c-1.4,0-2.9-1.2-3.2-2.8l-8.5-42.7c-0.3-1.6,0.6-2.9,2-2.9l48.2-0.4
	c1.4,0,2.8,1.2,3.1,2.8l8.4,42.1C636.3,433,635.4,434.3,634,434.3z M587.4,429.6l43-0.8l-7.3-36.5l-43,0.4L587.4,429.6z"/>
<path fill="#D8DEE8" d="M238,504.6l-58.2,2c-1.7,0.1-3.4-1.3-3.8-3l-9.4-47.1c-0.3-1.7,0.8-3.2,2.5-3.2l58.4-1.3
	c1.7,0,3.4,1.3,3.7,3l9.2,46.4C240.8,503.1,239.7,504.5,238,504.6z M181.6,500.2l52-1.7l-8-40.2l-52.1,1.2L181.6,500.2z"/>
<path fill="#D8DEE8" d="M311.5,502.1l-56.3,1.9c-1.7,0.1-3.3-1.3-3.7-3l-9.2-46.3c-0.3-1.7,0.8-3.1,2.4-3.2l56.4-1.3
	c1.6,0,3.3,1.3,3.6,3l9.1,45.6C314.2,500.6,313.1,502,311.5,502.1z M257,497.7l50.3-1.6l-7.9-39.6l-50.4,1.2L257,497.7z"/>
<path fill="#D8DEE8" d="M382.6,499.6l-54.5,1.9c-1.6,0.1-3.2-1.3-3.6-2.9l-9.1-45.5c-0.3-1.7,0.7-3.1,2.4-3.1l54.6-1.2
	c1.6,0,3.2,1.3,3.5,2.9l8.9,44.9C385.2,498.2,384.2,499.6,382.6,499.6z M329.8,495.3l48.6-1.6l-7.7-38.9L322,456L329.8,495.3z"/>
<path fill="#D8DEE8" d="M451.4,497.3l-52.7,1.8c-1.6,0.1-3.1-1.2-3.5-2.9l-8.9-44.8c-0.3-1.7,0.7-3,2.3-3.1l52.8-1.2
	c1.5,0,3.1,1.3,3.4,2.9l8.8,44.2C453.9,495.9,452.9,497.2,451.4,497.3z M400.3,493l47.1-1.5l-7.6-38.3l-47.2,1.1L400.3,493z"/>
<path fill="#D8DEE8" d="M518.1,495l-51.1,1.7c-1.5,0.1-3-1.2-3.4-2.9l-8.8-44c-0.3-1.6,0.7-3,2.2-3l51.2-1.1c1.5,0,3,1.2,3.3,2.8
	l8.7,43.5C520.5,493.6,519.5,495,518.1,495z M468.6,490.8l45.6-1.5l-7.5-37.7l-45.7,1.1L468.6,490.8z"/>
<path fill="#D8DEE8" d="M582.6,492.8l-49.5,1.7c-1.5,0.1-2.9-1.2-3.3-2.8l-8.6-43.4c-0.3-1.6,0.6-2.9,2.1-3l49.6-1.1
	c1.5,0,2.9,1.2,3.2,2.8l8.5,42.8C585,491.4,584.1,492.8,582.6,492.8z M534.7,488.6l44.2-1.4l-7.4-37.1l-44.3,1L534.7,488.6z"/>
<path fill="#D8DEE8" d="M645.3,490.7l-48,1.6c-1.4,0-2.9-1.2-3.2-2.8l-8.5-42.7c-0.3-1.6,0.6-2.9,2-2.9l48.1-1.1
	c1.4,0,2.8,1.2,3.1,2.8l8.4,42.1C647.5,489.3,646.7,490.6,645.3,490.7z M598.7,486.5l42.8-1.4l-7.3-36.5l-42.9,1L598.7,486.5z"/>
<path fill="#D8DEE8" d="M250.3,566.6l-58.1,2.8c-1.7,0.1-3.4-1.3-3.8-3l-9.4-47.1c-0.3-1.7,0.8-3.2,2.5-3.3l58.2-2.1
	c1.7-0.1,3.4,1.3,3.7,3l9.2,46.4C253.1,565.1,252,566.5,250.3,566.6z M194.1,563l51.8-2.4l-8-40.2l-51.9,2L194.1,563z"/>
<path fill="#D8DEE8" d="M323.6,563.1l-56.1,2.7c-1.7,0.1-3.3-1.2-3.7-2.9l-9.2-46.3c-0.3-1.7,0.8-3.1,2.4-3.2l56.3-2
	c1.6-0.1,3.2,1.3,3.6,2.9l9.1,45.6C326.3,561.6,325.2,563,323.6,563.1z M269.3,559.4l50.1-2.3l-7.9-39.6l-50.2,1.9L269.3,559.4z"/>
<path fill="#D8DEE8" d="M394.5,559.6l-54.3,2.6c-1.6,0.1-3.2-1.2-3.6-2.9l-9.1-45.5c-0.3-1.7,0.7-3.1,2.4-3.2l54.4-2
	c1.6-0.1,3.1,1.2,3.5,2.9l8.9,44.9C397.1,558.2,396.1,559.6,394.5,559.6z M341.9,556l48.5-2.3l-7.7-38.9l-48.6,1.8L341.9,556z"/>
<path fill="#D8DEE8" d="M463.2,556.3l-52.6,2.5c-1.6,0.1-3.1-1.2-3.5-2.9l-8.9-44.8c-0.3-1.7,0.7-3,2.3-3.1l52.7-1.9
	c1.5-0.1,3.1,1.2,3.4,2.9l8.8,44.2C465.7,554.9,464.7,556.3,463.2,556.3z M412.2,552.7l47-2.2l-7.6-38.3l-47,1.8L412.2,552.7z"/>
<path fill="#D8DEE8" d="M529.6,553.1l-50.9,2.5c-1.5,0.1-3-1.2-3.4-2.8l-8.8-44c-0.3-1.6,0.7-3,2.2-3l51-1.9c1.5-0.1,3,1.2,3.3,2.8
	l8.7,43.5C532.1,551.7,531.1,553.1,529.6,553.1z M480.3,549.6l45.5-2.1l-7.5-37.7l-45.6,1.7L480.3,549.6z"/>
<path fill="#D8DEE8" d="M594,550l-49.3,2.4c-1.5,0.1-2.9-1.2-3.3-2.8l-8.6-43.4c-0.3-1.6,0.6-2.9,2.1-3l49.5-1.8
	c1.4-0.1,2.9,1.2,3.2,2.8l8.5,42.8C596.4,548.6,595.5,549.9,594,550z M546.2,546.5l44.1-2.1l-7.4-37.1l-44.1,1.7L546.2,546.5z"/>
<path fill="#D8DEE8" d="M656.5,547l-47.8,2.3c-1.4,0.1-2.9-1.2-3.2-2.7l-8.5-42.7c-0.3-1.6,0.6-2.9,2-3l47.9-1.7
	c1.4-0.1,2.8,1.2,3.1,2.7l8.4,42.1C658.7,545.6,657.9,546.9,656.5,547z M610.1,543.5l42.7-2l-7.3-36.5l-42.8,1.6L610.1,543.5z"/>
<path fill="#D8DEE8" d="M262.7,628.6l-57.9,3.6c-1.7,0.1-3.4-1.2-3.8-3l-9.4-47.1c-0.3-1.7,0.8-3.2,2.5-3.3l58-2.9
	c1.7-0.1,3.3,1.2,3.7,2.9l9.2,46.4C265.4,627,264.3,628.5,262.7,628.6z M206.6,625.8l51.7-3.2l-8-40.2l-51.8,2.7L206.6,625.8z"/>
<path fill="#D8DEE8" d="M335.8,624.1l-56,3.5c-1.7,0.1-3.3-1.2-3.7-2.9l-9.2-46.3c-0.3-1.7,0.7-3.2,2.4-3.3l56.1-2.8
	c1.6-0.1,3.2,1.2,3.6,2.9l9.1,45.6C338.4,622.5,337.4,624,335.8,624.1z M281.6,621.2l50-3.1l-7.9-39.6l-50.1,2.6L281.6,621.2z"/>
<path fill="#D8DEE8" d="M406.5,619.6l-54.2,3.4c-1.6,0.1-3.2-1.2-3.5-2.9l-9.1-45.5c-0.3-1.7,0.7-3.1,2.3-3.2l54.3-2.7
	c1.6-0.1,3.1,1.2,3.5,2.9l8.9,44.9C409.1,618.1,408,619.5,406.5,619.6z M354,616.8l48.4-3l-7.7-38.9l-48.5,2.5L354,616.8z"/>
<path fill="#D8DEE8" d="M474.9,615.4l-52.4,3.3c-1.6,0.1-3.1-1.2-3.4-2.8l-8.9-44.8c-0.3-1.7,0.7-3.1,2.3-3.1l52.6-2.7
	c1.5-0.1,3,1.2,3.4,2.8l8.8,44.2C477.4,613.9,476.4,615.3,474.9,615.4z M424.1,612.5l46.8-2.9l-7.6-38.3l-46.9,2.4L424.1,612.5z"/>
<linearGradient id="SVGID_13_" gradientUnits="userSpaceOnUse" x1="897.0249" y1="264.9258" x2="917.5693" y2="550.2639" gradientTransform="matrix(1 0 0.2218 1 -802.274 0)">
	<stop  offset="3.597120e-003" style="stop-color:#E38DDD"/>
	<stop  offset="1" style="stop-color:#9571F6"/>
</linearGradient>
<polygon fill="url(#SVGID_13_)" points="198.9,320.3 139.4,319.9 136.8,307.1 196.4,307.7 "/>
<linearGradient id="SVGID_14_" gradientUnits="userSpaceOnUse" x1="972.6558" y1="261.1958" x2="992.7594" y2="540.4124" gradientTransform="matrix(1 0 0.2218 1 -802.274 0)">
	<stop  offset="3.597120e-003" style="stop-color:#E38DDD"/>
	<stop  offset="1" style="stop-color:#9571F6"/>
</linearGradient>
<polygon fill="url(#SVGID_14_)" points="273.9,320.9 216.4,320.4 214,307.9 271.5,308.5 "/>
<linearGradient id="SVGID_15_" gradientUnits="userSpaceOnUse" x1="1045.7798" y1="257.6274" x2="1065.4612" y2="530.9789" gradientTransform="matrix(1 0 0.2218 1 -802.274 0)">
	<stop  offset="3.597120e-003" style="stop-color:#E38DDD"/>
	<stop  offset="1" style="stop-color:#9571F6"/>
</linearGradient>
<polygon fill="url(#SVGID_15_)" points="346.5,321.4 290.9,321 288.5,308.7 344.1,309.2 "/>
<linearGradient id="SVGID_16_" gradientUnits="userSpaceOnUse" x1="1116.5181" y1="254.2153" x2="1135.7933" y2="521.9261" gradientTransform="matrix(1 0 0.2218 1 -802.274 0)">
	<stop  offset="3.597120e-003" style="stop-color:#E38DDD"/>
	<stop  offset="1" style="stop-color:#9571F6"/>
</linearGradient>
<polygon fill="url(#SVGID_16_)" points="416.8,321.9 363,321.5 360.6,309.4 414.4,309.9 "/>
<linearGradient id="SVGID_17_" gradientUnits="userSpaceOnUse" x1="1184.9878" y1="250.9521" x2="1203.8718" y2="513.2305" gradientTransform="matrix(1 0 0.2218 1 -802.274 0)">
	<stop  offset="3.597120e-003" style="stop-color:#E38DDD"/>
	<stop  offset="1" style="stop-color:#9571F6"/>
</linearGradient>
<polygon fill="url(#SVGID_17_)" points="484.8,322.4 432.7,322 430.3,310.1 482.5,310.6 "/>
<linearGradient id="SVGID_18_" gradientUnits="userSpaceOnUse" x1="1251.2935" y1="247.8208" x2="1269.8026" y2="504.8911" gradientTransform="matrix(1 0 0.2218 1 -802.274 0)">
	<stop  offset="3.597120e-003" style="stop-color:#E38DDD"/>
	<stop  offset="1" style="stop-color:#9571F6"/>
</linearGradient>
<polygon fill="url(#SVGID_18_)" points="550.7,322.9 500.2,322.5 497.9,310.8 548.4,311.3 "/>
<linearGradient id="SVGID_19_" gradientUnits="userSpaceOnUse" x1="1315.5366" y1="244.8188" x2="1333.6846" y2="496.8734" gradientTransform="matrix(1 0 0.2218 1 -802.274 0)">
	<stop  offset="3.597120e-003" style="stop-color:#E38DDD"/>
	<stop  offset="1" style="stop-color:#9571F6"/>
</linearGradient>
<polygon fill="url(#SVGID_19_)" points="614.5,323.3 565.6,323 563.3,311.4 612.2,311.9 "/>
<polygon fill="#D8DEE8" points="609.1,296.4 133.4,289.8 128.6,265.7 604.8,274.9 "/>
<linearGradient id="SVGID_20_" gradientUnits="userSpaceOnUse" x1="382.2319" y1="410.8936" x2="433.3208" y2="410.8936">
	<stop  offset="0" style="stop-color:#AB316D"/>
	<stop  offset="1" style="stop-color:#792D3D"/>
</linearGradient>
<path fill="url(#SVGID_20_)" d="M397.7,431.6c-0.5,0-1.1-0.2-1.6-0.5l-12.8-9.3c-1.2-0.9-1.5-2.5-0.6-3.7c0.9-1.2,2.5-1.5,3.7-0.6
	l10.9,7.9l31.3-34.3c1-1.1,2.7-1.2,3.8-0.2s1.2,2.7,0.2,3.8l-32.9,36C399.2,431.3,398.4,431.6,397.7,431.6z"/>
<linearGradient id="SVGID_21_" gradientUnits="userSpaceOnUse" x1="2691.8218" y1="33.2446" x2="2646.2437" y2="106.9739" gradientTransform="matrix(0.993 0.1177 -0.1177 0.993 -2358.3882 71.5072)">
	<stop  offset="0" style="stop-color:#444B8C"/>
	<stop  offset="0.9964" style="stop-color:#26264F"/>
</linearGradient>
<path fill="url(#SVGID_21_)" d="M253.2,464.3l34-58.7c0.4-0.7,1.3-1.1,2.1-0.9l47.6,11.1c1.3,0.3,1.9,1.8,1.2,2.9l-39.5,63.1
	c-0.5,0.8-1.4,1.1-2.3,0.8l-41.8-15.1L253.2,464.3z"/>
<linearGradient id="SVGID_22_" gradientUnits="userSpaceOnUse" x1="2729.2358" y1="76.7339" x2="2689.8665" y2="150.6517" gradientTransform="matrix(0.9946 0.104 -0.104 0.9946 -2400.5076 62.5808)">
	<stop  offset="0" style="stop-color:#FFC444"/>
	<stop  offset="0.9964" style="stop-color:#F36F56"/>
</linearGradient>
<path fill="url(#SVGID_22_)" d="M261.6,457.6l27.5-47.5c0.3-0.6,1-0.9,1.7-0.7l38.5,9c1,0.2,1.5,1.4,1,2.3l-32,51.1
	c-0.4,0.6-1.1,0.9-1.8,0.6l-33.9-12.2L261.6,457.6z"/>
<linearGradient id="SVGID_23_" gradientUnits="userSpaceOnUse" x1="2687.1665" y1="28.5156" x2="2698.0144" y2="6.0161" gradientTransform="matrix(0.993 0.1177 -0.1177 0.993 -2358.3882 71.5072)">
	<stop  offset="0" style="stop-color:#AA80F9"/>
	<stop  offset="0.9964" style="stop-color:#6165D7"/>
</linearGradient>
<path fill="url(#SVGID_23_)" d="M297.2,410.7l2.2-3.8c0.3-0.5,0.9-0.8,1.5-0.7l19.8,4.5c0.9,0.2,1.4,1.3,0.9,2.1l-2.4,4.1
	c-0.3,0.5-0.9,0.8-1.5,0.6l-19.6-4.8C297.2,412.5,296.8,411.5,297.2,410.7z"/>
<path fill="#FFFFFF" d="M323.2,427C323.2,427,323.1,427,323.2,427l-35-8.3c-0.4-0.1-0.7-0.5-0.6-1c0.1-0.4,0.6-0.7,1-0.6l34.9,8.2
	c0.4,0.1,0.7,0.5,0.6,1C324,426.8,323.6,427.1,323.2,427z"/>
<path fill="#FFFFFF" d="M321,430.4C321,430.4,320.9,430.4,321,430.4l-34.8-8.6c-0.4-0.1-0.7-0.5-0.6-1c0.1-0.4,0.5-0.7,1-0.6
	l34.7,8.6c0.4,0.1,0.7,0.5,0.6,1C321.8,430.2,321.4,430.4,321,430.4z"/>
<path fill="#FFFFFF" d="M302.7,434.2c0,0-0.1,0-0.1,0l-18.9-5.2c-0.4-0.1-0.7-0.6-0.6-1c0.1-0.4,0.6-0.7,1-0.6l18.9,5.2
	c0.4,0.1,0.7,0.6,0.6,1C303.5,434,303.1,434.2,302.7,434.2z"/>
<path fill="#FFFFFF" d="M298.7,441c0,0-0.1,0-0.1,0l-18.9-5.2c-0.4-0.1-0.7-0.6-0.6-1c0.1-0.4,0.6-0.7,1-0.6l18.9,5.2
	c0.4,0.1,0.7,0.6,0.6,1C299.4,440.8,299,441,298.7,441z"/>
<path fill="#FFFFFF" d="M294.4,447.8c0,0-0.1,0-0.1,0l-18.9-5.2c-0.4-0.1-0.7-0.6-0.6-1c0.1-0.4,0.6-0.7,1-0.6l18.9,5.2
	c0.4,0.1,0.7,0.6,0.6,1C295.2,447.6,294.8,447.8,294.4,447.8z"/>
<linearGradient id="SVGID_24_" gradientUnits="userSpaceOnUse" x1="313" y1="444.8428" x2="329.8692" y2="466.0664">
	<stop  offset="0" style="stop-color:#FFC444"/>
	<stop  offset="0.9964" style="stop-color:#F36F56"/>
</linearGradient>
<path fill="url(#SVGID_24_)" d="M310.7,455.3c0,0,3.7-6.8,5.8-6.7c2.2,0.1,3.8-1.5,3.8-1.5s4-9.2,4.9-7.8c0.9,1.4,2.6,19-8.5,23.2
	C305.7,466.6,310.7,455.3,310.7,455.3z"/>
<linearGradient id="SVGID_25_" gradientUnits="userSpaceOnUse" x1="83.2505" y1="575.6514" x2="169.7749" y2="406.1201">
	<stop  offset="0" style="stop-color:#311944"/>
	<stop  offset="1" style="stop-color:#893976"/>
</linearGradient>
<path fill="url(#SVGID_25_)" d="M126.3,398.1c-2.3,0.9-37.1,14.7-44.3,51.1c-0.6,2.9-6.2,34.2,15,56.2c23.7,24.7,69.5,24.1,87.6,3.4
	c4.2-4.8,6.5-10.2,7.7-14.7l-4.8-12.7c-5.8-7-13.8-8.7-18-9.8c-10.5-2.6-18.4,2.1-24.3-3c-3.3-2.8-4-6.8-4.6-10.4
	c-2-12.2,4.9-19.7,5.4-27.3c0.4-5.6,2.3-18-5-26C136.4,399.9,130,398.5,126.3,398.1z"/>
<linearGradient id="SVGID_26_" gradientUnits="userSpaceOnUse" x1="-1229.8223" y1="641.7686" x2="-1215.5509" y2="654.463" gradientTransform="matrix(-0.9902 -0.14 -0.14 0.9902 -1011.139 -11.0193)">
	<stop  offset="0" style="stop-color:#444B8C"/>
	<stop  offset="0.9964" style="stop-color:#26264F"/>
</linearGradient>
<path fill="url(#SVGID_26_)" d="M112.8,803.1c-0.4-2.2-7.6-4.3-11.2-1.3c-1.8,1.5-3,4.5-2,5.9c0.4,0.5-1.2,1.4,0.3,1.4
	C104.8,809.1,113.2,805.3,112.8,803.1z"/>
<linearGradient id="SVGID_27_" gradientUnits="userSpaceOnUse" x1="-2141.3418" y1="654.4678" x2="-2141.3418" y2="629.6052" gradientTransform="matrix(-0.9902 -0.14 -0.14 0.9902 -1927.3402 -140.5354)">
	<stop  offset="0" style="stop-color:#FFC444"/>
	<stop  offset="0.9964" style="stop-color:#F36F56"/>
</linearGradient>
<path fill="url(#SVGID_27_)" d="M105.2,803.9l-7.4-1.1c3.4-4.1,2.8-17.3,2.8-17.3l7.9,1.8c0,0-0.9,3.6-2.4,9
	C105.5,798.1,105.3,800.9,105.2,803.9z"/>
<linearGradient id="SVGID_28_" gradientUnits="userSpaceOnUse" x1="-1228.3882" y1="640.1553" x2="-1214.1157" y2="652.8506" gradientTransform="matrix(-0.9902 -0.14 -0.14 0.9902 -1011.139 -11.0193)">
	<stop  offset="0" style="stop-color:#444B8C"/>
	<stop  offset="0.9964" style="stop-color:#26264F"/>
</linearGradient>
<path fill="url(#SVGID_28_)" d="M105.9,803c0,0-8.9-2.1-9.9-0.3s-1.7,6.5,4,6.4C105.6,808.9,106.4,804.5,105.9,803z"/>
<linearGradient id="SVGID_29_" gradientUnits="userSpaceOnUse" x1="-1143.625" y1="804.5254" x2="-1129.3528" y2="817.2206" gradientTransform="matrix(-1 0 0 1 -925.8252 0)">
	<stop  offset="0" style="stop-color:#444B8C"/>
	<stop  offset="0.9964" style="stop-color:#26264F"/>
</linearGradient>
<path fill="url(#SVGID_29_)" d="M214.7,811.5c-0.7-2.2-8.2-3.2-11.3,0.3c-1.6,1.7-2.3,4.9-1.1,6.1c0.4,0.4-1,1.5,0.5,1.3
	C207.7,818.6,215.4,813.6,214.7,811.5z"/>
<linearGradient id="SVGID_30_" gradientUnits="userSpaceOnUse" x1="-2055.187" y1="817.2471" x2="-2055.187" y2="792.3831" gradientTransform="matrix(-1 0 0 1 -1851.1348 0)">
	<stop  offset="0" style="stop-color:#FFC444"/>
	<stop  offset="0.9964" style="stop-color:#F36F56"/>
</linearGradient>
<path fill="url(#SVGID_30_)" d="M207.3,813.3h-7.5c2.8-4.6,0.3-17.6,0.3-17.6l8.1,0.6c0,0-0.4,3.7-1.2,9.2
	C206.8,807.5,207,810.4,207.3,813.3z"/>
<linearGradient id="SVGID_31_" gradientUnits="userSpaceOnUse" x1="495.5376" y1="828.6494" x2="402.4713" y2="452.8953" gradientTransform="matrix(1 0 0 1 -290.314 0)">
	<stop  offset="0" style="stop-color:#444B8C"/>
	<stop  offset="0.9964" style="stop-color:#26264F"/>
</linearGradient>
<path fill="url(#SVGID_31_)" d="M226.8,529.6c3.5,11.5,8.4,30,11.6,53.3c9.1,66.3-10.3,68.4-6.6,141.9c1.2,23.5-20.3,77.5-22.2,78.7
	c-0.9,0.1-1.9,0.1-3,0.1c-1.9-0.1-4.5-0.3-7.6-1.3c-3.4-0.6-15.7-33.8-12.8-53.6c2-14,1.4-29,0.3-59c-0.2-4.9-12.6-94.6-12.6-94.6
	c-3.8,33.2-8.1,61.4-11.9,83.3c-12.1,70.3-51.5,112.8-53.6,113.5c-0.4,0.2-4.1,1.5-7.1-0.5c-1.3-0.9-1.8-2-1.8-2
	c-1.1-0.8,0.3-70.2,12.3-122.4c17.4-75.8,9.9-93.5,15.4-127.3C131.9,510.5,226.8,529.6,226.8,529.6z"/>
<linearGradient id="SVGID_32_" gradientUnits="userSpaceOnUse" x1="105.646" y1="627.1016" x2="156.2944" y2="511.7355">
	<stop  offset="0" style="stop-color:#311944"/>
	<stop  offset="1" style="stop-color:#893976"/>
</linearGradient>
<path fill="url(#SVGID_32_)" d="M156.3,392.1c11.6-0.3,38.2-4.4,52.9,8.8c0.3,0.2-2.7,1.8-1.3,3.6c1.4,1.6,6.1,7.2,10.4,14.9
	c3.1,5.5,5.9,11.9,8.7,21.5c5,16.9,6.4,31.3,6.9,37.6c2.7,35.3,0,51.5-2.4,62.6c-10.5,5.4-37.5,15-69.6,10.2
	c-14.7-2.2-26.4-7.1-34.7-11.4c8.3-25.3,1.8-38.8-1.3-51.2c-4.4-17.8-4.5-16.4-8.1-30.5c-6-23.3-7-47.1-2.9-52
	C126,392.9,146,392.5,156.3,392.1z"/>
<linearGradient id="SVGID_33_" gradientUnits="userSpaceOnUse" x1="-1142.1904" y1="802.9121" x2="-1127.918" y2="815.6075" gradientTransform="matrix(-1 0 0 1 -925.8252 0)">
	<stop  offset="0" style="stop-color:#444B8C"/>
	<stop  offset="0.9964" style="stop-color:#26264F"/>
</linearGradient>
<path fill="url(#SVGID_33_)" d="M207.9,812.3c0,0-9.1-0.8-9.9,1.1s-0.8,6.7,4.8,5.8C208.4,818.3,208.6,813.8,207.9,812.3z"/>
<linearGradient id="SVGID_34_" gradientUnits="userSpaceOnUse" x1="163.9873" y1="358.5581" x2="173.1974" y2="463.2343">
	<stop  offset="0" style="stop-color:#FFC444"/>
	<stop  offset="0.9964" style="stop-color:#F36F56"/>
</linearGradient>
<path fill="url(#SVGID_34_)" d="M189.2,379.5c3.6-6.1,1.7-13.6,1.3-15.1c-1.5-6.3-2.1-7.2-3.2-8.5l-1.6-1.7c0,0-0.1-0.1-0.2-0.2
	c-1.1-0.8-5.4-2.1-6.3-2.1c-2.9-0.1-8.9,10.4-12.4,26.7c-0.3,0.6-0.6,1.2-0.8,1.8c-1.7,3.7-3.2,7.3-4.4,10.9
	c-19.9,1.7-22.7,4-22.8,5.4c-0.2,2.8,11.2,6.1,19.7,7.4c18.6,2.7,37.7-2.2,37.6-5.7c0-1.5-3.7-3.5-19.5-5.5c0.4-2.6,0.7-5.2,1.1-7.8
	C179,384.6,186.6,383.9,189.2,379.5z"/>
<path fill="#26264F" d="M192.7,351.1c-1.3,5-5.1,9.7-6.5,10.2c-0.2,0.1-1.2,0.5-2.3,1.5c-0.1,0.1-0.3,0.3-0.4,0.5
	c-1.9,2.8,2.1,7.9,0.7,9c-1,0.8-4-1.4-4.6-0.7c-0.6,0.7,1.8,3.2,1.1,4.1c-0.5,0.7-2.1-0.5-3.5,0.4c-0.7,0.4-0.7,0.9-1.7,2.5
	c-0.6,0.9-1.3,1.9-1.8,2.4c-2.5,2.5-7.7,2.2-8.3,0.8c-0.2-0.4,0.1-0.6,0.1-1.8c0,0,0-1.1-0.4-2.4c-0.6-1.9-2.7-3.8-4.7-6.2
	c-3.7-4.5-4.2-7.6-4.3-8.6c0-0.4-0.1-0.6-0.1-0.8c-0.2-4,1.2-9.4,3.8-12.2c4.2-4.8,9.8-0.5,16.3-4.7c7.6-4.8,6.4-14.4,9.8-14.5
	C189.7,330.3,195.1,341.9,192.7,351.1z"/>
<linearGradient id="SVGID_35_" gradientUnits="userSpaceOnUse" x1="179.5615" y1="357.188" x2="188.7716" y2="461.8644">
	<stop  offset="0" style="stop-color:#FFC444"/>
	<stop  offset="0.9964" style="stop-color:#F36F56"/>
</linearGradient>
<path fill="url(#SVGID_35_)" d="M182.6,370.6c-0.8-2-3.3-1-3.9,1.2c-0.6,2.2,0.9,5,3.1,5.1C183.9,377,183.7,373.3,182.6,370.6z"/>
<path fill="#9B305E" d="M130.8,523.7C130.8,523.7,130.8,523.7,130.8,523.7c-0.2,0-0.3-0.1-0.2-0.3c1.4-12.3-1.2-21.3-3.4-29.2
	c-0.6-1.9-1.1-3.8-1.5-5.6c-2.5-10.1-3.6-14-4.8-18.1c-0.8-2.7-1.5-5.5-2.7-10.1c0-0.1,0-0.3,0.2-0.3c0.1,0,0.3,0,0.3,0.2
	c1.2,4.6,2,7.4,2.7,10.1c1.2,4.1,2.3,8,4.8,18.1c0.5,1.8,1,3.7,1.5,5.6c2.3,8,4.8,17,3.5,29.4C131.1,523.6,131,523.7,130.8,523.7z"
	/>
<path fill="#26264F" d="M182.6,366.7l1.8,4.4c0,0,1.3,4.3,4.3,3.3c2.1-0.7,2.6-2.3,2.6-3.3c0.5,1.3,0.9,3.2,0.9,5.8
	c0,2.5,0,5.1-1.9,7.1c-0.1,0.1-2.2,2.2-5,2.1c0,0-1.1,0-5.3-2c0,0,5.8-2.2,6.1-3c0.8-2.2-2-4.3-3.1-9.5
	C182.6,369.7,182.6,367.9,182.6,366.7z"/>
<linearGradient id="SVGID_36_" gradientUnits="userSpaceOnUse" x1="205.7925" y1="539.3281" x2="247.2959" y2="449.9901">
	<stop  offset="0" style="stop-color:#311944"/>
	<stop  offset="1" style="stop-color:#893976"/>
</linearGradient>
<path fill="url(#SVGID_36_)" d="M310.6,453.9c4.2,2.9,6.4,6.9,7.6,9.5c-3.1,7.2-10.1,20.7-24.5,30.5c-23.7,16.2-58.5,16.8-82.7-1.7
	c-28.9-22.1-33.8-64.5-21.6-82.6c1.4-2.1,6-9,13.1-9.7c4.5-0.5,10.6,1.4,20.3,12.7c20.2,23.6,13.1,38.4,25,45.3
	C265.7,468.2,292.3,441.1,310.6,453.9z"/>
<path fill="#9B305E" d="M229.1,502C229.1,502,229.1,502,229.1,502c-0.3-0.1-28.7-6.6-41.4-41.7c0-0.1,0-0.3,0.1-0.3
	c0.1,0,0.3,0,0.3,0.2c6.6,18.2,17.4,28.5,25.3,33.9c8.6,5.9,15.6,7.5,15.7,7.5c0.1,0,0.2,0.2,0.2,0.3C229.4,502,229.3,502,229.1,502
	z"/>
<linearGradient id="SVGID_37_" gradientUnits="userSpaceOnUse" x1="-1631.7979" y1="756.835" x2="-1626.2234" y2="857.1761" gradientTransform="matrix(1 0 0 1 2275.4712 0)">
	<stop  offset="0" style="stop-color:#311944"/>
	<stop  offset="1" style="stop-color:#A03976"/>
</linearGradient>
<path fill="url(#SVGID_37_)" d="M657.6,792.5c0,0,0.7,5.5,0.2,7.4c-0.5,1.9-16.6,3.2-22.1,2.6c-5.5-0.6,3.3-6.2,6.7-7.3
	C646,794.1,657.6,792.5,657.6,792.5z"/>
<linearGradient id="SVGID_38_" gradientUnits="userSpaceOnUse" x1="-1621.27" y1="806.2852" x2="-1624.2313" y2="670.8099" gradientTransform="matrix(1 0 0 1 2275.4712 0)">
	<stop  offset="0" style="stop-color:#FFC444"/>
	<stop  offset="0.9964" style="stop-color:#F36F56"/>
</linearGradient>
<path fill="url(#SVGID_38_)" d="M649.5,783.3l1.7,11.1c0,0,4.3,1.9,6.4,0l0.2-11.6L649.5,783.3z"/>
<linearGradient id="SVGID_39_" gradientUnits="userSpaceOnUse" x1="-1530.9033" y1="751.2324" x2="-1525.3292" y2="851.5665" gradientTransform="matrix(1 0 0 1 2275.4712 0)">
	<stop  offset="0" style="stop-color:#311944"/>
	<stop  offset="1" style="stop-color:#A03976"/>
</linearGradient>
<path fill="url(#SVGID_39_)" d="M740.4,782.8c0,0-3.4,2.5-2.5,5.6c0.9,3,8.9,15.2,14.6,18.7c5.7,3.5,3.9-3.7,2.3-8.2
	c-1.7-4.5-5.9-14.4-7.5-16C745.6,781.1,740.4,782.8,740.4,782.8z"/>
<linearGradient id="SVGID_40_" gradientUnits="userSpaceOnUse" x1="-1532.4409" y1="804.3418" x2="-1535.4021" y2="668.8738" gradientTransform="matrix(1 0 0 1 2275.4712 0)">
	<stop  offset="0" style="stop-color:#FFC444"/>
	<stop  offset="0.9964" style="stop-color:#F36F56"/>
</linearGradient>
<path fill="url(#SVGID_40_)" d="M734.3,770.5c1.7,4.6,3.2,8.4,4.5,11.2c2.8,6.2,4.3,8.5,6,10.5c1.5,1.8,5,5.5,6,4.9
	c1-0.6-1.6-5.2-6.6-18.5c-0.7-1.9-3-8.1-3-8.1H734.3z"/>
<linearGradient id="SVGID_41_" gradientUnits="userSpaceOnUse" x1="-1509.6411" y1="600.792" x2="-1685.4277" y2="712.4684" gradientTransform="matrix(1 0 0 1 2275.4712 0)">
	<stop  offset="0" style="stop-color:#311944"/>
	<stop  offset="1" style="stop-color:#A03976"/>
</linearGradient>
<path fill="url(#SVGID_41_)" d="M615.7,577.9c-1.2,11.6-2.3,29.6-0.6,51.4c2.2,28.4,7.9,46.4,15,76.8c4.4,18.5,10.2,45.8,15.5,79.9
	c1.2,0.7,4.9,2.6,9.5,1.9c2.6-0.4,4.6-1.4,5.7-2.2c13.9-42.6,9.8-69,3.1-85.5c-2.9-7-6.3-12.5-8.2-23.3c-2.5-14.3,0.6-22.2,4.9-55.3
	c3.1-23.5,2.6-27.2,0.5-30.7C653,576.8,627.9,577,615.7,577.9z"/>
<linearGradient id="SVGID_42_" gradientUnits="userSpaceOnUse" x1="-1622.4888" y1="727.6035" x2="-1490.7137" y2="604.7123" gradientTransform="matrix(1 0 0 1 2275.4712 0)">
	<stop  offset="0" style="stop-color:#311944"/>
	<stop  offset="1" style="stop-color:#A03976"/>
</linearGradient>
<path fill="url(#SVGID_42_)" d="M663.7,582.8c8.5,44.1,16.9,67.3,23.3,80.4c1.6,3.2,6.8,13.7,11.7,28.6c4.4,13.2,6.2,23,7.1,27.3
	c2.9,13.5,10.2,33.3,29.8,59.2c0.2,0.1,3.6,2,6.8,0.3c1.6-0.9,2.4-2.2,2.7-2.8c-2.6-24.8-5.5-45.6-8.1-61.6
	c-0.5-3.4-2.9-18.1-6.6-37.6c-1.4-7.6-3.6-18.8-6.1-30.2c-3.2-14.3-8-33.7-15.5-57C693.9,587.2,678.8,585,663.7,582.8z"/>
<linearGradient id="SVGID_43_" gradientUnits="userSpaceOnUse" x1="-1733.2905" y1="458.0576" x2="-1587.7788" y2="444.9411" gradientTransform="matrix(1 0 0 1 2275.4712 0)">
	<stop  offset="0" style="stop-color:#AA80F9"/>
	<stop  offset="0.9964" style="stop-color:#6165D7"/>
</linearGradient>
<path fill="url(#SVGID_43_)" d="M528,475c1.9-2.3,3.9-4.5,5.8-6.8c0.9,0.7,14.3,10.5,30.2,4.8c11-4,16.2-14.1,19.6-20.6
	c10.1-19.5,0.8-31.6,12.6-45.5c3.3-3.9,10.1-9,15.1-8.4c11.9,1.4,23.2,34.9,15.9,63.6c-1.5,5.8-9.6,37.6-37.1,44.8
	C567.7,512.5,541.6,499.9,528,475z"/>
<linearGradient id="SVGID_44_" gradientUnits="userSpaceOnUse" x1="-1457.3086" y1="559.043" x2="-1586.4177" y2="447.4557" gradientTransform="matrix(1 0 0 1 2275.4712 0)">
	<stop  offset="0" style="stop-color:#444B8C"/>
	<stop  offset="0.9964" style="stop-color:#3E4177"/>
</linearGradient>
<path fill="url(#SVGID_44_)" d="M656.5,408.3c-4.8-4.5-14.1-9.6-18.8-21.6c-1.4-3.6-6.4-16.4,1-26.2c4.3-5.8,12.4-9.8,19.5-8.4
	c6.1,1.2,7,5.4,17.3,13.9c4,3.3,10.5,8.6,17.7,11.6c12.3,5.1,19.7,0.3,32.1,0.8c15.2,0.7,32.8,9.1,41.3,21.5
	c15.1,21.9-6.8,44.1,9.8,69.7c5.4,8.4,8.1,6.5,20.9,22.8c12.8,16.3,19.3,24.4,18.1,34.4c-1.6,13.8-16.5,27.1-30.5,28
	c-13.7,0.9-22.4-9.9-29.4-5.2c-5,3.4-2.1,9.9-7.4,17.7c-6.8,10.1-20.2,12.1-22.3,12.5c-20,3-47.1-20.5-58.5-48.3
	C646.5,481.2,682.8,432.7,656.5,408.3z"/>
<linearGradient id="SVGID_45_" gradientUnits="userSpaceOnUse" x1="-1657.104" y1="723.5801" x2="-1600.8413" y2="648.0696" gradientTransform="matrix(1 0 0 1 2275.4712 0)">
	<stop  offset="0" style="stop-color:#311944"/>
	<stop  offset="1" style="stop-color:#6B3976"/>
</linearGradient>
<path opacity="0.3" fill="url(#SVGID_45_)" d="M664.1,700.2c-2.9-7-6.3-12.5-8.2-23.3c-2.5-14.3,0.6-22.2,4.9-55.3
	c3.1-23.5,2.6-27.2,0.5-30.7c-4.5-7.7-13.9-11.1-23.6-12.5c0.1,0.5,0.3,1,0.4,1.5c5.1,23.2-14.3,37.3-5.6,62.7
	c4.3,12.5,11.2,15.4,12.8,30c1.5,13.6-3.9,16.5-2.8,28.9c1.7,18.5,14.9,23,18.3,37.2c2.2,9.2,0.4,22.7-15.9,42.2
	c0.3,1.7,0.5,3.4,0.8,5.1c1.2,0.7,4.9,2.6,9.5,1.9c2.6-0.4,4.6-1.4,5.7-2.2C674.9,743.1,670.8,716.7,664.1,700.2z"/>
<linearGradient id="SVGID_46_" gradientUnits="userSpaceOnUse" x1="-1380.8384" y1="407.0449" x2="-1275.1416" y2="407.0449" gradientTransform="matrix(0.9905 -0.1373 0.1373 0.9905 1839.9229 -116.9873)">
	<stop  offset="0" style="stop-color:#AA80F9"/>
	<stop  offset="0.9964" style="stop-color:#6165D7"/>
</linearGradient>
<path opacity="0.3" fill="url(#SVGID_46_)" d="M613.2,431.8c-18.4,19.2-11.8,50.2-24.2,53.5c-3.8,1-4-2-13.7-3.7
	c-14.1-2.5-19.9,2.8-29.9,0.8c-4.1-0.8-9.7-3.1-15.7-9.4c-0.6,0.7-1.1,1.3-1.7,2c13.6,24.9,39.7,37.5,62,31.8
	c27.5-7.1,35.7-39,37.1-44.8c3.4-13.4,2.8-28-0.2-39.7C622.3,424.3,617.5,427.3,613.2,431.8z"/>
<linearGradient id="SVGID_47_" gradientUnits="userSpaceOnUse" x1="-1727.0259" y1="527.5576" x2="-1581.5144" y2="514.4411" gradientTransform="matrix(1 0 0 1 2275.4712 0)">
	<stop  offset="0" style="stop-color:#AA80F9"/>
	<stop  offset="0.9964" style="stop-color:#6165D7"/>
</linearGradient>
<path fill="url(#SVGID_47_)" d="M597.9,405c1.3-2,5.3-7.5,22.6-11.5c6.2-1.5,16.1-3.7,28.8-3.2c2.1,0.1,9,0.4,16.4,2
	c15.8,3.4,47.2,15.4,48.2,31.7c0.8,11.7-14.8,12.4-23.6,33.1c-6.4,15-6.4,33.8,0.6,48.5c5.6,11.7,15.5,20.5,23.1,27.2
	c11.3,10,17.2,11.6,21,20.6c4.1,9.8,0,14.6,5.1,21.3c5.5,7.2,12,3.9,21.3,11.1c9.6,7.5,6.2,13.6,14.9,21.8
	c12.6,12,29.4,8.1,30.2,13.5c0.7,4.6-11.2,10.9-21.4,13.5c-20,5-37.5-3.4-42.7-6c-14.4-7.2-11.9-11.9-22.9-17.4
	c-18.4-9.2-30.9,1-72.8,2.1c-22.7,0.6-34.1,0.7-40.4-7c-5.7-7-2.7-14.7,0.7-47.8c0,0,0,0,0,0c1.1-11.1,3.4-34.2,3.4-47.4
	c0-7.8-2.7-20.5-8.1-46c-0.3-1.5-3.2-15.3-5.6-33.7C594.6,414.7,594.9,409.6,597.9,405z"/>
<linearGradient id="SVGID_48_" gradientUnits="userSpaceOnUse" x1="-1572.1338" y1="392.9487" x2="-1540.2509" y2="587.926" gradientTransform="matrix(1 0 0 1 2275.4712 0)">
	<stop  offset="0" style="stop-color:#AA80F9"/>
	<stop  offset="0.9964" style="stop-color:#6165D7"/>
</linearGradient>
<path fill="url(#SVGID_48_)" d="M776.3,607.6c-8.7-8.2-5.3-14.4-14.9-21.8c-9.3-7.3-15.8-3.9-21.3-11.1c-5.1-6.7-1-11.5-5.1-21.3
	c-3.8-9-9.7-10.5-21-20.6c-7.5-6.7-17.5-15.5-23.1-27.2c-9.7-20.4-2.9-42.1-0.6-48.5c7.4-20.4,22.4-31.2,27.8-34.7
	c-0.5-0.6-25.9,22-26.5,21.3c-35.7,4.9-31.8,2.4-34.4,8.5c-6,14.1,3.5,19.3,3.7,60.1c0.1,19.5-2,27.2,4.3,35.3
	c7.2,9.3,15.6,6.4,26,18.6c8,9.3,6.7,15.3,14.2,19.2c8.1,4.2,13.2-0.7,22.3,1.2c15.2,3.2,18.4,20.8,28.5,30.3
	c7.6,7.2,21.6,12.3,49.3,6.9c0.6-0.9,1-1.8,0.8-2.7C805.7,615.7,789,619.6,776.3,607.6z"/>
<linearGradient id="SVGID_49_" gradientUnits="userSpaceOnUse" x1="-1626.0674" y1="397.5532" x2="-1591.6438" y2="347.5835" gradientTransform="matrix(1 0 0 1 2275.4712 0)">
	<stop  offset="0" style="stop-color:#FFC444"/>
	<stop  offset="0.9964" style="stop-color:#F36F56"/>
</linearGradient>
<path fill="url(#SVGID_49_)" d="M654.1,370.2c0,0,1.8,14.4,7.1,17.7c5.3,3.3,13.9,7.6,14.9,8.8c0.9,1.2-32.9,4.8-49.7-3.7
	c5.5-1.2,7-1.6,7-1.6c1.5-0.4,4.3-1.2,7.1-2.8c1.9-1.1,5-3.2,7.8-7.2l-0.1-8L654.1,370.2z"/>
<linearGradient id="SVGID_50_" gradientUnits="userSpaceOnUse" x1="-1629.188" y1="372.207" x2="-1574.7756" y2="339.4485" gradientTransform="matrix(1 0 0 1 2275.4712 0)">
	<stop  offset="0" style="stop-color:#FFC444"/>
	<stop  offset="0.9964" style="stop-color:#F36F56"/>
</linearGradient>
<path fill="url(#SVGID_50_)" d="M654.9,375.3c0,0-3.5,4.8-8.9,2.8c-4.9-1.8-2-14.3,1.9-15.8c1.3-0.5,3.7-0.3,5.2,0.7
	c1.1,0.7,4.1,4.4,2.4,8.5c1.2-0.4,2.3,0,2.6,0.6c0.3,0.8-0.7,1.8-0.9,2.1C656.4,375,655.4,375.2,654.9,375.3z"/>
<linearGradient id="SVGID_51_" gradientUnits="userSpaceOnUse" x1="760.8208" y1="720.9092" x2="817.0168" y2="756.3805" gradientTransform="matrix(0.3595 -0.9332 0.9332 0.3595 -335.8999 970.8901)">
	<stop  offset="0" style="stop-color:#AB316D"/>
	<stop  offset="1" style="stop-color:#792D3D"/>
</linearGradient>
<path fill="url(#SVGID_51_)" d="M776,559.2c0.4,8.5-2.4,15.7-8.4,21.8L466.4,464.9l8.4-21.8L776,559.2z"/>
<linearGradient id="SVGID_52_" gradientUnits="userSpaceOnUse" x1="804.4067" y1="724.5635" x2="765.7453" y2="730.1435" gradientTransform="matrix(0.3595 -0.9332 0.9332 0.3595 -335.8999 970.8901)">
	<stop  offset="0" style="stop-color:#AB316D"/>
	<stop  offset="1" style="stop-color:#792D3D"/>
</linearGradient>
<path fill="url(#SVGID_52_)" d="M772.3,575c1.5-2.5,2.6-5.3,3.2-8.2L472.1,450l-3.2,8.2L772.3,575z"/>
<linearGradient id="SVGID_53_" gradientUnits="userSpaceOnUse" x1="779.5962" y1="493.0732" x2="760.5195" y2="683.3635" gradientTransform="matrix(0.3595 -0.9332 0.9332 0.3595 -335.8999 970.8901)">
	<stop  offset="0" style="stop-color:#FFC444"/>
	<stop  offset="0.9964" style="stop-color:#F36F56"/>
</linearGradient>
<path fill="url(#SVGID_53_)" d="M474.7,443.1c1.4,8.8-1.3,16.1-8.4,21.8l-64.3-36.4c-0.7-0.4-0.3-1.6,0.5-1.4L474.7,443.1z"/>
<linearGradient id="SVGID_54_" gradientUnits="userSpaceOnUse" x1="773.2778" y1="476.4414" x2="771.6836" y2="544.9937" gradientTransform="matrix(0.3595 -0.9332 0.9332 0.3595 -335.8999 970.8901)">
	<stop  offset="0" style="stop-color:#AB316D"/>
	<stop  offset="1" style="stop-color:#792D3D"/>
</linearGradient>
<path fill="url(#SVGID_54_)" d="M402.1,428.4l25,14.2c2-2.8,3.2-5.9,3.6-9.3l-28-6.3C401.8,426.8,401.3,428,402.1,428.4z"/>
<linearGradient id="SVGID_55_" gradientUnits="userSpaceOnUse" x1="-2039.4795" y1="199.5864" x2="-2022.328" y2="304.4744" gradientTransform="matrix(0.9735 -0.2286 0.2286 0.9735 2468.741 -177.1032)">
	<stop  offset="0" style="stop-color:#FFC444"/>
	<stop  offset="0.9964" style="stop-color:#F36F56"/>
</linearGradient>
<path fill="url(#SVGID_55_)" d="M538.8,491.1c0,0-10.9-5.9-15.3-10c-4.4-4.1-0.3,6,2.1,8.9C528,492.8,541.5,498.1,538.8,491.1z"/>
<linearGradient id="SVGID_56_" gradientUnits="userSpaceOnUse" x1="-1570.4199" y1="523.582" x2="-1573.2892" y2="406.763" gradientTransform="matrix(1 0 0 1 2275.4712 0)">
	<stop  offset="0" style="stop-color:#AA80F9"/>
	<stop  offset="0.9964" style="stop-color:#6165D7"/>
</linearGradient>
<path fill="url(#SVGID_56_)" d="M690.4,400.8c10.8,5.3,44.6,21.3,51.9,67.4c7.4,46.1-32,70.1-32,70.1l-9.2-6.1
	c0,0,9.8-71.9-25.2-92.2C640.9,419.6,690.4,400.8,690.4,400.8z"/>
<linearGradient id="SVGID_57_" gradientUnits="userSpaceOnUse" x1="-1586.6792" y1="532.4268" x2="-1556.8591" y2="554.2538" gradientTransform="matrix(1 0 0 1 2275.4712 0)">
	<stop  offset="0" style="stop-color:#FFC444"/>
	<stop  offset="0.9964" style="stop-color:#F36F56"/>
</linearGradient>
<path fill="url(#SVGID_57_)" d="M703.3,533.6c-2.2,0.4-3.4,2.2-8.3-0.2c-4.9-2.5-17.2,0.6-17.2,0.6s6.1,5.5,12.9,4.3
	s13,2.1,14.8,2.6c1.8,0.5,2.4-4.2,2.4-4.2L703.3,533.6z"/>
<linearGradient id="SVGID_58_" gradientUnits="userSpaceOnUse" x1="742.563" y1="208.312" x2="698.9083" y2="196.0454">
	<stop  offset="0" style="stop-color:#FFC444"/>
	<stop  offset="0.9964" style="stop-color:#F36F56"/>
</linearGradient>
<path fill="url(#SVGID_58_)" d="M710.1,215.4c3.5,1.8,7.9,0.1,9.9-3.7c1.9-3.8,0.7-8.4-2.9-10.1c-0.2-0.1-0.4-0.2-0.6-0.2
	c0.7-2.1,1.1-4.2,1.5-6.4c0.2,0,0.4,0,0.6,0c4-0.4,7.2-4.1,7.1-8.2c-0.1-4.2-3.4-7.3-7.4-7c-0.2,0-0.4,0.1-0.6,0.1
	c-0.4-2.1-1-4.1-1.7-6.1c0.2-0.1,0.4-0.2,0.5-0.3c3.4-2.4,4.5-7.2,2.5-10.6c-2.1-3.5-6.6-4.3-10-1.9c-0.2,0.1-0.3,0.3-0.5,0.4
	c-1.4-1.5-2.8-2.9-4.5-4.2c0.1-0.2,0.2-0.4,0.3-0.6c1.9-3.8,4.5-8,0.9-9.7c-8.2-4-11.7-0.6-13.7,3.2c-0.1,0.2-0.2,0.4-0.3,0.6
	c-2-0.6-4-0.9-6-1.1c0-0.2,0-0.4,0-0.6c-0.1-4.2,1.2-6.5-2.9-6.5c-8.8-0.2-11.8,3.6-11.7,7.8c0,0.2,0,0.4,0,0.6
	c-2,0.6-4,1.3-5.9,2.2c-0.1-0.2-0.2-0.4-0.3-0.6c-2.1-3.5-6.6-4.3-10-1.9c-3.4,2.4-4.5,7.2-2.5,10.6c0.1,0.2,0.2,0.3,0.3,0.5
	c-1.5,1.5-2.9,3.2-4.3,5c-0.2-0.1-0.3-0.2-0.5-0.3c-3.5-1.8-7.9-0.1-9.9,3.7c-1.9,3.8-0.7,8.4,2.9,10.1c0.2,0.1,0.4,0.2,0.6,0.2
	c-0.7,2.1-1.1,4.2-1.5,6.4c-0.2,0-0.4,0-0.6,0c-4,0.4-7.2,4.1-7.1,8.3c0.1,4.2,3.4,7.3,7.4,7c0.2,0,0.4-0.1,0.6-0.1
	c0.4,2.1,1,4.1,1.7,6.1c-0.2,0.1-0.4,0.2-0.5,0.3c-3.4,2.4-4.5,7.2-2.5,10.6c2.1,3.5,9,5.1,12.4,2.7c0.2-0.1-2.1-1-1.9-1.1
	c1.4,1.5,2.8,2.9,4.5,4.2c-0.1,0.2-0.2,0.4-0.3,0.6c-1.9,3.8-0.7,8.4,2.9,10.1c3.5,1.8,7.9,0.1,9.9-3.7c0.1-0.2,0.2-0.4,0.3-0.6
	c2,0.6,4,0.9,6,1.1c0,0.2,0,0.4,0,0.6c0.1,4.2,3.4,7.3,7.4,7c4-0.4,7.2-4.1,7.1-8.2c0-0.2,0-0.4,0-0.6c2-0.6,4-1.3,5.9-2.2
	c0.1,0.2,0.2,0.4,0.3,0.6c2.1,3.5,6.6,4.3,10,1.9c3.4-2.4,4.5-7.2,2.5-10.6c-0.1-0.2-0.2-0.3-0.3-0.5c1.5-1.5,2.9-3.2,4.3-5
	C709.8,215.2,709.9,215.3,710.1,215.4z M666.2,215.9c-12.8-6.5-17.5-23-10.4-36.8c7-13.9,23.1-19.8,35.9-13.3
	c12.8,6.5,17.5,23,10.4,36.8C695.1,216.5,679,222.4,666.2,215.9z"/>
<linearGradient id="SVGID_59_" gradientUnits="userSpaceOnUse" x1="742.269" y1="209.3525" x2="698.6152" y2="197.0862">
	<stop  offset="0" style="stop-color:#FFC444"/>
	<stop  offset="0.9964" style="stop-color:#F36F56"/>
</linearGradient>
<path fill="url(#SVGID_59_)" d="M718.7,194.9c4-0.4,7.2-4.1,7.1-8.3s-3.4-7.3-7.4-7c-0.2,0-0.4,0.1-0.6,0.1c-0.4-2.1-1-4.1-1.7-6.1
	c0.2-0.1,0.4-0.2,0.5-0.3c3.4-2.4,7.7-8.2,5.3-11.5c-4.6-6.1-9.4-3.5-12.8-1.1c-0.2,0.1-0.3,0.3-0.5,0.4c-1.4-1.5-2.8-2.9-4.5-4.2
	c0.1-0.2,0.2-0.4,0.3-0.6c1.1-2.1,1.1-4.4,0.5-6.3c-3.3,5.8-6.6,11.7-9.8,17.6c10.2,7.5,13.5,22.2,7.1,34.8
	c-5.4,10.6-16.1,16.6-26.6,15.9c-0.5,1.2-0.9,2.4-1.4,3.6c-1.4,3.3-2.9,6.5-4.5,9.6c1,0.2,2,0.3,2.9,0.4c0,0.2,0,0.4,0,0.6
	c0.1,4.2,2.6,7.8,9.9,7.4c4-0.2,4.7-4.5,4.6-8.7c0-0.2,0-0.4,0-0.6c2-0.6,4-1.3,5.9-2.2c0.1,0.2,0.2,0.4,0.3,0.6
	c2.1,3.5,9.3,4.9,12.7,2.5c3.4-2.4,1.8-7.8-0.3-11.2c-0.1-0.2-0.2-0.3-0.3-0.5c1.5-1.5,2.9-3.2,4.3-5c0.2,0.1,0.3,0.2,0.5,0.3
	c3.5,1.8,7.9,0.1,9.9-3.7c1.9-3.8,0.7-8.4-2.9-10.1c-0.2-0.1-0.4-0.2-0.6-0.2c0.7-2.1,1.1-4.2,1.5-6.4
	C718.2,195,718.4,195,718.7,194.9z"/>
<linearGradient id="SVGID_60_" gradientUnits="userSpaceOnUse" x1="671.8696" y1="65.7539" x2="700.762" y2="400.3469">
	<stop  offset="0" style="stop-color:#FFC444"/>
	<stop  offset="0.9964" style="stop-color:#F36F56"/>
</linearGradient>
<path fill="url(#SVGID_60_)" d="M713.9,215.8c3.5,1.8,7.9,0.1,9.9-3.7c1.9-3.8,0.7-8.4-2.9-10.1c-0.2-0.1-0.4-0.2-0.6-0.2
	c0.7-2.1,1.1-4.2,1.5-6.4c0.2,0,0.4,0,0.6,0c4-0.4,7.2-4.1,7.1-8.2c-0.1-4.2-3.4-7.3-7.4-7c-0.2,0-0.4,0.1-0.6,0.1
	c-0.4-2.1-1-4.1-1.7-6.1c0.2-0.1,0.4-0.2,0.5-0.3c3.4-2.4,4.5-7.2,2.5-10.6c-2.1-3.5-6.6-4.3-10-1.9c-0.2,0.1-0.3,0.3-0.5,0.4
	c-1.4-1.5-2.8-2.9-4.5-4.2c0.1-0.2,0.2-0.4,0.3-0.6c1.9-3.8,0.7-8.4-2.9-10.1c-3.5-1.8-7.9-0.1-9.9,3.7c-0.1,0.2-0.2,0.4-0.3,0.6
	c-2-0.6-4-0.9-6-1.1c0-0.2,0-0.4,0-0.6c-0.1-4.2-3.4-7.3-7.4-7c-4,0.4-7.2,4.1-7.1,8.2c0,0.2,0,0.4,0,0.6c-2,0.6-4,1.3-5.9,2.2
	c-0.1-0.2-0.2-0.4-0.3-0.6c-2.1-3.5-6.6-4.3-10-1.9s-4.5,7.2-2.5,10.6c0.1,0.2,0.2,0.3,0.3,0.5c-1.5,1.5-2.9,3.2-4.3,5
	c-0.2-0.1-0.3-0.2-0.5-0.3c-3.5-1.8-7.9-0.1-9.9,3.7c-1.9,3.8-0.7,8.4,2.9,10.1c0.2,0.1,0.4,0.2,0.6,0.2c-0.7,2.1-1.1,4.2-1.5,6.4
	c-0.2,0-0.4,0-0.6,0c-4,0.4-7.2,4.1-7.1,8.3c0.1,4.2,3.4,7.3,7.4,7c0.2,0,0.4-0.1,0.6-0.1c0.4,2.1,1,4.1,1.7,6.1
	c-0.2,0.1-0.4,0.2-0.5,0.3c-3.4,2.4-4.5,7.2-2.5,10.6c2.1,3.5,6.6,4.3,10,1.9c0.2-0.1,0.3-0.3,0.5-0.4c1.4,1.5,2.8,2.9,4.5,4.2
	c-0.1,0.2-0.2,0.4-0.3,0.6c-1.9,3.8-0.7,8.4,2.9,10.1c3.5,1.8,7.9,0.1,9.9-3.7c0.1-0.2,0.2-0.4,0.3-0.6c2,0.6,4,0.9,6,1.1
	c0,0.2,0,0.4,0,0.6c0.1,4.2,3.4,7.3,7.4,7c4-0.4,7.2-4.1,7.1-8.2c0-0.2,0-0.4,0-0.6c2-0.6,4-1.3,5.9-2.2c0.1,0.2,0.2,0.4,0.3,0.6
	c2.1,3.5,6.6,4.3,10,1.9c3.4-2.4,4.5-7.2,2.5-10.6c-0.1-0.2-0.2-0.3-0.3-0.5c1.5-1.5,2.9-3.2,4.3-5
	C713.5,215.6,713.7,215.7,713.9,215.8z M670,216.4c-12.8-6.5-17.5-23-10.4-36.8s23.1-19.8,35.9-13.3c12.8,6.5,17.5,23,10.4,36.8
	C698.8,216.9,682.8,222.9,670,216.4z"/>
<linearGradient id="SVGID_61_" gradientUnits="userSpaceOnUse" x1="690.3979" y1="156.0269" x2="587.5754" y2="120.3096">
	<stop  offset="0" style="stop-color:#FFC444"/>
	<stop  offset="0.9964" style="stop-color:#F36F56"/>
</linearGradient>
<path fill="url(#SVGID_61_)" d="M619.2,154.5c5.8,2.9,13,0.2,16.2-6c3.2-6.2,1.1-13.7-4.7-16.6c-0.3-0.2-0.6-0.3-0.9-0.4
	c1.1-3.5,1.9-6.9,2.4-10.4c0.3,0,0.7,0,1,0c6.6-0.6,11.8-6.6,11.7-13.5c-0.1-6.9-5.6-12-12.2-11.4c-0.3,0-0.7,0.1-1,0.1
	c-0.7-3.4-1.6-6.7-2.8-10c0.3-0.2,0.6-0.4,0.9-0.6c5.6-3.9,7.4-11.7,4-17.4c-3.4-5.7-10.7-7.1-16.4-3.1c-0.3,0.2-0.6,0.4-0.8,0.6
	c-2.2-2.5-4.7-4.7-7.3-6.8c0.2-0.3,0.4-0.6,0.5-0.9c3.2-6.2,7.3-13.1,1.5-15.9c-13.5-6.6-19.2-0.9-22.4,5.3c-0.2,0.3-0.3,0.7-0.4,1
	c-3.2-0.9-6.5-1.5-9.8-1.9c0-0.3,0-0.7,0-1c-0.1-6.9,1.9-10.6-4.7-10.7c-14.4-0.3-19.3,6-19.1,12.9c0,0.4,0,0.7,0.1,1.1
	c-3.3,0.9-6.5,2.1-9.7,3.6c-0.1-0.3-0.3-0.6-0.5-0.9c-3.4-5.7-10.7-7.1-16.4-3.1c-5.6,3.9-7.4,11.7-4,17.4c0.2,0.3,0.4,0.6,0.6,0.8
	c-2.5,2.5-4.8,5.2-7,8.1c-0.3-0.2-0.6-0.3-0.9-0.5c-5.8-2.9-13-0.2-16.2,6c-3.2,6.2-1.1,13.7,4.7,16.6c0.3,0.2,0.6,0.3,0.9,0.4
	c-1.1,3.5-1.9,6.9-2.4,10.4c-0.3,0-0.7,0-1,0c-6.6,0.6-11.8,6.6-11.7,13.5c0.1,6.9,5.6,12,12.2,11.4c0.3,0,0.7-0.1,1-0.1
	c0.7,3.4,1.6,6.7,2.8,10c-0.3,0.2-0.6,0.4-0.9,0.6c-5.6,3.9-7.4,11.7-4,17.4c3.4,5.7,14.7,8.3,20.3,4.3c0.3-0.2-3.4-1.7-3.1-1.9
	c2.2,2.5,4.7,4.7,7.3,6.8c-0.2,0.3-0.4,0.6-0.5,0.9c-3.2,6.2-1.1,13.7,4.7,16.6s13,0.2,16.2-6c0.2-0.3,0.3-0.7,0.4-1
	c3.2,0.9,6.5,1.5,9.8,1.9c0,0.3,0,0.7,0,1c0.1,6.9,5.6,12,12.2,11.4c6.6-0.6,11.8-6.6,11.7-13.5c0-0.4,0-0.7-0.1-1.1
	c3.3-0.9,6.5-2.1,9.7-3.6c0.2,0.3,0.3,0.6,0.5,0.9c3.4,5.7,10.7,7.1,16.4,3.1c5.6-3.9,7.4-11.7,4-17.4c-0.2-0.3-0.4-0.6-0.6-0.8
	c2.5-2.5,4.8-5.2,7-8.1C618.6,154.2,618.9,154.4,619.2,154.5z M547.2,155.4c-21-10.6-28.6-37.7-17.1-60.3
	c11.5-22.7,37.8-32.5,58.8-21.8c21,10.6,28.6,37.7,17.1,60.3S568.2,166.1,547.2,155.4z"/>
<linearGradient id="SVGID_62_" gradientUnits="userSpaceOnUse" x1="690.2075" y1="156.5757" x2="587.3845" y2="120.8582">
	<stop  offset="0" style="stop-color:#FFC444"/>
	<stop  offset="0.9964" style="stop-color:#F36F56"/>
</linearGradient>
<path fill="url(#SVGID_62_)" d="M633.2,121c6.6-0.6,11.8-6.6,11.7-13.5c-0.1-6.9-5.6-12-12.2-11.4c-0.3,0-0.7,0.1-1,0.1
	c-0.7-3.4-1.6-6.7-2.8-10c0.3-0.2,0.6-0.4,0.9-0.6c5.6-3.9,12.6-13.5,8.6-18.8c-7.5-10-15.3-5.7-21-1.7c-0.3,0.2-0.6,0.4-0.8,0.6
	c-2.2-2.5-4.7-4.7-7.3-6.8c0.2-0.3,0.4-0.6,0.5-0.9c1.7-3.4,1.9-7.2,0.7-10.3c-5.4,9.6-10.8,19.2-16.1,28.9
	c16.7,12.2,22,36.4,11.6,57c-8.9,17.4-26.5,27.2-43.6,26c-0.8,2-1.5,4-2.3,6c-2.2,5.3-4.8,10.6-7.3,15.8c1.6,0.3,3.2,0.5,4.8,0.7
	c0,0.3,0,0.7,0,1c0.1,6.9,4.3,12.7,16.2,12.1c6.6-0.4,7.7-7.3,7.6-14.2c0-0.4,0-0.7-0.1-1.1c3.3-0.9,6.5-2.1,9.7-3.6
	c0.2,0.3,0.3,0.6,0.5,0.9c3.4,5.7,15.2,8.1,20.9,4.1c5.6-3.9,2.9-12.8-0.5-18.4c-0.2-0.3-0.4-0.6-0.6-0.8c2.5-2.5,4.8-5.2,7-8.1
	c0.3,0.2,0.6,0.3,0.9,0.5c5.8,2.9,13,0.2,16.2-6c3.2-6.2,1.1-13.7-4.7-16.6c-0.3-0.2-0.6-0.3-0.9-0.4c1.1-3.5,1.9-6.9,2.4-10.4
	C632.5,121.1,632.8,121.1,633.2,121z"/>
<linearGradient id="SVGID_63_" gradientUnits="userSpaceOnUse" x1="570.0649" y1="66.2632" x2="598.9572" y2="400.8547">
	<stop  offset="0" style="stop-color:#FFC444"/>
	<stop  offset="0.9964" style="stop-color:#F36F56"/>
</linearGradient>
<path fill="url(#SVGID_63_)" d="M625.4,155.2c5.8,2.9,13,0.2,16.2-6c3.2-6.2,1.1-13.7-4.7-16.6c-0.3-0.2-0.6-0.3-0.9-0.4
	c1.1-3.5,1.9-6.9,2.4-10.4c0.3,0,0.7,0,1,0c6.6-0.6,11.8-6.6,11.7-13.5c-0.1-6.9-5.6-12-12.2-11.4c-0.3,0-0.7,0.1-1,0.1
	c-0.7-3.4-1.6-6.7-2.8-10c0.3-0.2,0.6-0.4,0.9-0.6c5.6-3.9,7.4-11.7,4-17.4s-10.7-7.1-16.4-3.1c-0.3,0.2-0.6,0.4-0.8,0.6
	c-2.2-2.5-4.7-4.7-7.3-6.8c0.2-0.3,0.4-0.6,0.5-0.9c3.2-6.2,1.1-13.7-4.7-16.6s-13-0.2-16.2,6c-0.2,0.3-0.3,0.7-0.4,1
	c-3.2-0.9-6.5-1.5-9.8-1.9c0-0.3,0-0.7,0-1c-0.1-6.9-5.6-12-12.2-11.4c-6.6,0.6-11.8,6.6-11.7,13.5c0,0.4,0,0.7,0.1,1.1
	c-3.3,0.9-6.5,2.1-9.7,3.6c-0.1-0.3-0.3-0.6-0.5-0.9c-3.4-5.7-10.7-7.1-16.4-3.1c-5.6,3.9-7.4,11.7-4,17.4c0.2,0.3,0.4,0.6,0.6,0.8
	c-2.5,2.5-4.8,5.2-7,8.1c-0.3-0.2-0.6-0.3-0.9-0.5c-5.8-2.9-13-0.2-16.2,6s-1.1,13.7,4.7,16.6c0.3,0.2,0.6,0.3,0.9,0.4
	c-1.1,3.5-1.9,6.9-2.4,10.4c-0.3,0-0.7,0-1,0c-6.6,0.6-11.8,6.6-11.7,13.5c0.1,6.9,5.6,12,12.2,11.4c0.3,0,0.7-0.1,1-0.1
	c0.7,3.4,1.6,6.7,2.8,10c-0.3,0.2-0.6,0.4-0.9,0.6c-5.6,3.9-7.4,11.7-4,17.4c3.4,5.7,10.7,7.1,16.4,3.1c0.3-0.2,0.6-0.4,0.8-0.6
	c2.2,2.5,4.7,4.7,7.3,6.8c-0.2,0.3-0.4,0.6-0.5,0.9c-3.2,6.2-1.1,13.7,4.7,16.6c5.8,2.9,13,0.2,16.2-6c0.2-0.3,0.3-0.7,0.4-1
	c3.2,0.9,6.5,1.5,9.8,1.9c0,0.3,0,0.7,0,1c0.1,6.9,5.6,12,12.2,11.4s11.8-6.6,11.7-13.5c0-0.4,0-0.7-0.1-1.1
	c3.3-0.9,6.5-2.1,9.7-3.6c0.2,0.3,0.3,0.6,0.5,0.9c3.4,5.7,10.7,7.1,16.4,3.1c5.6-3.9,7.4-11.7,4-17.4c-0.2-0.3-0.4-0.6-0.6-0.8
	c2.5-2.5,4.8-5.2,7-8.1C624.8,154.9,625.1,155.1,625.4,155.2z M553.4,156.1c-21-10.6-28.6-37.7-17.1-60.3
	c11.5-22.7,37.8-32.5,58.8-21.8c21,10.6,28.6,37.7,17.1,60.3S574.4,166.8,553.4,156.1z"/>
</svg>
