<?xml version="1.0" standalone="no"?>
<!DOCTYPE svg PUBLIC "-//W3C//DTD SVG 20010904//EN"
 "http://www.w3.org/TR/2001/REC-SVG-20010904/DTD/svg10.dtd">
<svg version="1.0" xmlns="http://www.w3.org/2000/svg"
 width="577.000000pt" height="433.000000pt" viewBox="0 0 577.000000 433.000000"
 preserveAspectRatio="xMidYMid meet">

<g transform="translate(0.000000,433.000000) scale(0.100000,-0.100000)"
fill="#000000" stroke="none">
<path d="M2804 3572 c-16 -15 -148 -164 -294 -332 -146 -168 -284 -324 -307
-347 -29 -27 -43 -50 -43 -67 0 -29 31 -50 60 -41 24 8 37 52 23 74 -8 12 -3
25 21 56 26 35 206 241 259 300 10 11 51 58 90 105 39 47 105 123 147 170 42
47 80 91 84 98 13 22 -11 13 -40 -16z"/>
<path d="M2986 3551 c-6 -8 49 -75 304 -375 227 -266 250 -297 238 -316 -15
-23 -2 -67 22 -75 51 -16 86 59 40 87 -11 7 -87 91 -168 187 -81 96 -165 195
-187 221 -22 25 -84 99 -139 163 -54 64 -100 117 -102 117 -1 0 -5 -4 -8 -9z"/>
<path d="M4216 3421 c-4 -5 -2 -12 3 -15 5 -4 12 -2 15 3 4 5 2 12 -3 15 -5 4
-12 2 -15 -3z"/>
<path d="M4400 2050 c0 -37 29 -65 84 -79 50 -12 71 -33 83 -81 9 -34 10 -34
22 -12 27 51 61 10 61 -74 0 -24 5 -44 10 -44 37 0 90 120 90 204 0 58 -19 86
-59 86 -12 0 -29 7 -37 15 -12 12 -42 15 -135 15 l-119 0 0 -30z"/>
<path d="M1388 1944 c-95 -29 -126 -111 -89 -230 31 -99 29 -112 -29 -169 -28
-28 -50 -58 -50 -70 0 -30 28 -65 52 -65 19 0 20 -4 14 -47 -11 -94 -17 -308
-8 -321 11 -16 72 -31 124 -32 64 0 134 20 168 49 l34 28 -18 126 c-17 120
-17 129 -1 172 15 37 16 52 6 90 -6 25 -9 50 -6 54 3 5 28 17 56 27 66 24 81
51 54 100 -20 38 -30 40 -97 20 -36 -11 -88 -13 -88 -2 0 0 -4 27 -10 59 -10
66 7 129 41 148 26 14 24 34 -7 58 -31 25 -78 26 -146 5z"/>
<path d="M3945 1622 c28 -29 310 -232 324 -232 20 0 17 2 -119 97 -154 106
-217 148 -205 135z"/>
<path d="M4390 1091 c0 -3 -14 -87 -30 -186 -27 -159 -30 -204 -30 -387 l0
-208 35 0 c19 0 35 3 35 8 0 4 16 103 36 221 27 156 45 235 69 294 35 87 38
86 50 -13 12 -92 63 -299 122 -488 25 -81 26 -82 59 -82 31 0 33 2 29 28 -6
31 -35 411 -36 463 -1 19 4 66 10 104 12 80 14 225 3 241 -5 9 -41 9 -140 1
-94 -8 -145 -8 -172 0 -22 5 -40 7 -40 4z"/>
<path d="M1019 374 c-11 -13 -8 -19 17 -40 82 -68 136 -83 76 -21 -18 18 -32
37 -32 41 0 9 -30 35 -41 36 -4 0 -12 -7 -20 -16z"/>
<path d="M1570 292 c0 -6 -3 -18 -6 -27 -6 -14 3 -16 71 -13 87 3 112 21 43
32 -24 3 -58 9 -75 12 -20 4 -33 2 -33 -4z"/>
<path d="M4263 272 c-97 -40 -80 -54 58 -50 l94 3 0 30 c0 29 -1 30 -55 32
-34 2 -71 -4 -97 -15z"/>
<path d="M4625 217 c-33 -12 -60 -27 -60 -32 0 -6 44 -11 106 -13 114 -3 124
2 108 46 -7 18 -16 22 -51 21 -24 0 -70 -10 -103 -22z"/>
</g>
</svg>
