<?xml version="1.0" standalone="no"?>
<!DOCTYPE svg PUBLIC "-//W3C//DTD SVG 20010904//EN"
 "http://www.w3.org/TR/2001/REC-SVG-20010904/DTD/svg10.dtd">
<svg version="1.0" xmlns="http://www.w3.org/2000/svg"
 width="512.000000pt" height="512.000000pt" viewBox="0 0 512.000000 512.000000"
 preserveAspectRatio="xMidYMid meet">

<g transform="translate(0.000000,512.000000) scale(0.100000,-0.100000)"
fill="#000000" stroke="none">
<path d="M481 4592 c-19 -9 -44 -30 -55 -45 -21 -28 -21 -30 -21 -1257 0
-1227 0 -1229 21 -1257 11 -15 36 -36 55 -45 32 -17 152 -18 2079 -18 1927 0
2047 1 2079 18 19 9 44 30 55 45 21 28 21 30 21 1257 0 1227 0 1229 -21 1257
-11 15 -36 36 -55 45 -32 17 -152 18 -2079 18 -1927 0 -2047 -1 -2079 -18z
m2279 -182 c171 -44 317 -129 441 -257 162 -166 249 -355 268 -579 44 -521
-325 -966 -848 -1024 -273 -30 -553 68 -752 262 -378 369 -385 972 -14 1344
91 92 141 128 252 183 156 77 274 102 448 96 78 -2 149 -11 205 -25z m-928
-1948 c7 -9 26 -22 43 -27 16 -6 36 -22 44 -37 14 -25 14 -29 -5 -55 -20 -27
-20 -28 -2 -59 24 -41 11 -80 -29 -90 -15 -4 -38 -18 -50 -31 -29 -30 -66 -30
-91 2 -11 14 -28 25 -38 25 -46 0 -71 65 -37 102 15 17 15 19 0 36 -32 35 -16
95 28 106 14 4 34 15 45 26 25 25 74 26 92 2z m403 -2 c10 -11 24 -20 30 -20
7 0 24 -9 39 -21 31 -24 34 -61 8 -87 -18 -18 -18 -19 0 -42 10 -12 18 -30 18
-39 0 -26 -29 -61 -50 -61 -11 0 -30 -11 -44 -25 -14 -14 -34 -25 -46 -25 -11
0 -32 11 -46 25 -14 14 -33 25 -44 25 -21 0 -50 35 -50 61 0 9 8 27 18 39 18
23 18 24 0 42 -26 26 -23 63 8 87 15 12 32 21 39 21 6 0 20 9 30 20 10 11 30
20 45 20 15 0 35 -9 45 -20z m404 1 c10 -10 30 -22 43 -26 12 -4 29 -12 36
-17 17 -15 15 -68 -5 -90 -15 -17 -15 -19 0 -36 33 -36 10 -102 -36 -102 -10
0 -28 -11 -39 -25 -25 -32 -62 -32 -91 -2 -12 13 -35 27 -50 31 -47 11 -56 80
-14 107 5 4 0 19 -13 37 -20 27 -21 33 -9 58 8 16 27 33 44 39 17 5 36 18 43
27 17 24 67 23 91 -1z m403 1 c7 -9 26 -22 43 -27 16 -6 36 -22 44 -37 14 -25
14 -29 -6 -57 -19 -24 -20 -31 -9 -40 20 -17 28 -58 16 -81 -6 -11 -23 -23
-38 -26 -15 -4 -37 -18 -49 -31 -29 -30 -66 -30 -91 2 -11 14 -28 25 -38 25
-46 0 -71 65 -37 102 15 17 15 19 0 36 -33 36 -16 95 30 107 16 3 36 15 46 26
22 24 72 25 89 1z m405 0 c10 -10 33 -24 51 -32 41 -16 52 -52 29 -93 -15 -26
-15 -31 -2 -50 8 -12 15 -30 15 -41 0 -26 -28 -56 -53 -56 -10 0 -28 -11 -39
-25 -11 -15 -30 -25 -44 -25 -14 0 -36 11 -50 25 -14 14 -33 25 -44 25 -21 0
-50 35 -50 61 0 9 8 27 18 39 18 23 18 24 0 42 -10 10 -18 27 -18 38 0 24 42
70 63 70 8 0 22 9 32 20 23 25 68 26 92 2z"/>
<path d="M2335 4290 c-152 -40 -264 -101 -373 -204 -170 -161 -253 -358 -253
-599 0 -139 23 -237 85 -362 41 -82 155 -233 182 -242 7 -2 13 20 16 59 10
115 64 230 149 318 36 37 142 113 172 123 6 2 -5 21 -27 43 -64 65 -91 134
-91 234 0 71 4 94 26 140 33 70 95 132 167 167 48 23 70 28 137 28 71 0 88 -4
147 -33 203 -100 254 -361 103 -529 l-43 -49 55 -29 c150 -78 257 -239 279
-420 l7 -60 61 66 c94 103 152 210 193 360 27 98 24 300 -5 403 -23 80 -75
193 -115 250 -117 169 -292 289 -487 336 -112 26 -285 27 -385 0z"/>
<path d="M2431 3844 c-73 -37 -104 -86 -109 -173 -3 -55 1 -74 20 -111 69
-127 244 -148 342 -40 72 80 73 190 3 276 -62 75 -163 94 -256 48z"/>
<path d="M2460 3293 c-160 -27 -299 -156 -334 -312 -9 -39 -16 -99 -16 -134 0
-63 0 -63 38 -84 117 -65 282 -99 430 -90 115 8 191 27 290 72 l72 34 0 84 c0
139 -42 240 -135 326 -91 84 -224 124 -345 104z"/>
<path d="M520 1837 c-21 -7 -45 -28 -62 -52 -27 -39 -458 -1144 -458 -1176 0
-21 48 -65 92 -83 33 -14 134 -16 805 -16 l768 0 69 181 c74 193 97 236 136
256 36 18 1344 18 1380 0 39 -20 62 -63 136 -256 l69 -181 768 0 c671 0 772 2
805 16 44 18 92 62 92 83 0 32 -431 1137 -458 1176 -17 24 -41 45 -62 52 -51
17 -4029 17 -4080 0z"/>
<path d="M1885 733 c-21 -54 -48 -125 -61 -157 -13 -33 -22 -61 -21 -63 2 -2
344 -2 760 -1 l755 3 -32 85 c-18 47 -45 118 -60 158 l-28 72 -638 0 -638 0
-37 -97z"/>
</g>
</svg>
